<mxfile host="65bd71144e">
    <diagram name="Page-1" id="kxM_OwAA6GszW-56teZd">
        <mxGraphModel dx="1130" dy="1259" grid="1" gridSize="10" guides="1" tooltips="1" connect="1" arrows="1" fold="1" page="1" pageScale="1" pageWidth="850" pageHeight="1100" math="0" shadow="0">
            <root>
                <mxCell id="0"/>
                <mxCell id="1" parent="0"/>
                <mxCell id="56" style="edgeStyle=none;html=1;" edge="1" parent="1" source="32" target="8">
                    <mxGeometry relative="1" as="geometry">
                        <Array as="points">
                            <mxPoint x="185" y="65"/>
                        </Array>
                    </mxGeometry>
                </mxCell>
                <mxCell id="2" value="" style="rounded=0;whiteSpace=wrap;html=1;" vertex="1" parent="1">
                    <mxGeometry width="850" height="70" as="geometry"/>
                </mxCell>
                <mxCell id="89" style="edgeStyle=none;html=1;fontSize=6;fillColor=#59281E;entryX=0.523;entryY=-0.092;entryDx=0;entryDy=0;entryPerimeter=0;" edge="1" parent="1" source="88" target="87">
                    <mxGeometry relative="1" as="geometry">
                        <mxPoint x="740" y="10" as="targetPoint"/>
                        <Array as="points">
                            <mxPoint x="-140" y="-120"/>
                            <mxPoint x="735" y="-120"/>
                        </Array>
                    </mxGeometry>
                </mxCell>
                <mxCell id="85" style="edgeStyle=none;html=1;entryX=0.5;entryY=0;entryDx=0;entryDy=0;fillColor=#59281E;" edge="1" parent="1" source="84" target="83">
                    <mxGeometry relative="1" as="geometry">
                        <Array as="points">
                            <mxPoint x="-140" y="-120"/>
                            <mxPoint x="720" y="-120"/>
                        </Array>
                    </mxGeometry>
                </mxCell>
                <mxCell id="3" value="" style="rounded=0;whiteSpace=wrap;html=1;fillColor=#18141D;" vertex="1" parent="1">
                    <mxGeometry y="70" width="90" height="980" as="geometry"/>
                </mxCell>
                <mxCell id="66" style="edgeStyle=none;html=1;" edge="1" parent="1" source="62" target="63">
                    <mxGeometry relative="1" as="geometry">
                        <mxPoint x="10" y="180" as="targetPoint"/>
                        <Array as="points">
                            <mxPoint x="-120" y="310"/>
                        </Array>
                    </mxGeometry>
                </mxCell>
                <mxCell id="81" style="edgeStyle=none;html=1;entryX=0.5;entryY=0;entryDx=0;entryDy=0;fillColor=#59281E;" edge="1" parent="1" source="78" target="79">
                    <mxGeometry relative="1" as="geometry">
                        <Array as="points">
                            <mxPoint x="-140" y="-120"/>
                            <mxPoint x="630" y="-120"/>
                        </Array>
                    </mxGeometry>
                </mxCell>
                <mxCell id="80" style="edgeStyle=none;html=1;fillColor=#59281E;entryX=0.5;entryY=0;entryDx=0;entryDy=0;" edge="1" parent="1" source="73" target="75">
                    <mxGeometry relative="1" as="geometry">
                        <mxPoint x="-140" y="-210" as="targetPoint"/>
                        <Array as="points">
                            <mxPoint x="-140" y="-120"/>
                            <mxPoint x="800" y="-120"/>
                        </Array>
                    </mxGeometry>
                </mxCell>
                <mxCell id="61" style="edgeStyle=none;html=1;entryX=0;entryY=0.583;entryDx=0;entryDy=0;entryPerimeter=0;" edge="1" parent="1" source="53" target="54">
                    <mxGeometry relative="1" as="geometry">
                        <Array as="points">
                            <mxPoint x="-40" y="155"/>
                            <mxPoint x="-40" y="40"/>
                        </Array>
                    </mxGeometry>
                </mxCell>
                <mxCell id="60" style="edgeStyle=none;html=1;entryX=0;entryY=0.75;entryDx=0;entryDy=0;" edge="1" parent="1" source="33" target="35">
                    <mxGeometry relative="1" as="geometry">
                        <Array as="points">
                            <mxPoint x="-20" y="95"/>
                            <mxPoint x="-20" y="290"/>
                        </Array>
                    </mxGeometry>
                </mxCell>
                <mxCell id="58" style="edgeStyle=none;html=1;" edge="1" parent="1" source="34" target="52">
                    <mxGeometry relative="1" as="geometry">
                        <Array as="points">
                            <mxPoint x="-140" y="-120"/>
                            <mxPoint x="400" y="-120"/>
                        </Array>
                    </mxGeometry>
                </mxCell>
                <mxCell id="55" value="" style="shape=umlActor;verticalLabelPosition=bottom;verticalAlign=top;html=1;outlineConnect=0;fillColor=none;rotation=35;" vertex="1" parent="1">
                    <mxGeometry x="-80" y="10" width="30" height="60" as="geometry"/>
                </mxCell>
                <mxCell id="8" value="&lt;font style=&quot;font-size: 18px;&quot;&gt;Image&lt;/font&gt;" style="rounded=1;whiteSpace=wrap;html=1;fillColor=#2C89E6;" vertex="1" parent="1">
                    <mxGeometry x="110" y="100" width="150" height="160" as="geometry"/>
                </mxCell>
                <mxCell id="10" value="&lt;span style=&quot;font-size: 18px;&quot;&gt;Image&lt;/span&gt;" style="rounded=1;whiteSpace=wrap;html=1;fillColor=#2C89E6;" vertex="1" parent="1">
                    <mxGeometry x="300" y="100" width="150" height="160" as="geometry"/>
                </mxCell>
                <mxCell id="11" value="&lt;span style=&quot;font-size: 18px;&quot;&gt;Image&lt;/span&gt;" style="rounded=1;whiteSpace=wrap;html=1;fillColor=#2C89E6;" vertex="1" parent="1">
                    <mxGeometry x="490" y="100" width="150" height="160" as="geometry"/>
                </mxCell>
                <mxCell id="12" value="&lt;span style=&quot;font-size: 18px;&quot;&gt;Image&lt;/span&gt;" style="rounded=1;whiteSpace=wrap;html=1;fillColor=#2C89E6;" vertex="1" parent="1">
                    <mxGeometry x="680" y="100" width="150" height="160" as="geometry"/>
                </mxCell>
                <mxCell id="13" value="&lt;span style=&quot;font-size: 18px;&quot;&gt;Image&lt;/span&gt;" style="rounded=1;whiteSpace=wrap;html=1;fillColor=#2C89E6;" vertex="1" parent="1">
                    <mxGeometry x="680" y="340" width="150" height="160" as="geometry"/>
                </mxCell>
                <mxCell id="14" value="&lt;span style=&quot;font-size: 18px;&quot;&gt;Image&lt;/span&gt;" style="rounded=1;whiteSpace=wrap;html=1;fillColor=#2C89E6;" vertex="1" parent="1">
                    <mxGeometry x="490" y="340" width="150" height="160" as="geometry"/>
                </mxCell>
                <mxCell id="15" value="&lt;span style=&quot;font-size: 18px;&quot;&gt;Image&lt;/span&gt;" style="rounded=1;whiteSpace=wrap;html=1;fillColor=#2C89E6;" vertex="1" parent="1">
                    <mxGeometry x="300" y="340" width="150" height="160" as="geometry"/>
                </mxCell>
                <mxCell id="16" value="&lt;span style=&quot;font-size: 18px;&quot;&gt;Image&lt;/span&gt;" style="rounded=1;whiteSpace=wrap;html=1;fillColor=#2C89E6;" vertex="1" parent="1">
                    <mxGeometry x="110" y="340" width="150" height="160" as="geometry"/>
                </mxCell>
                <mxCell id="18" value="&lt;span style=&quot;font-size: 18px;&quot;&gt;Image&lt;/span&gt;" style="rounded=1;whiteSpace=wrap;html=1;fillColor=#2C89E6;" vertex="1" parent="1">
                    <mxGeometry x="110" y="580" width="150" height="160" as="geometry"/>
                </mxCell>
                <mxCell id="19" value="&lt;span style=&quot;font-size: 18px;&quot;&gt;Image&lt;/span&gt;" style="rounded=1;whiteSpace=wrap;html=1;fillColor=#2C89E6;" vertex="1" parent="1">
                    <mxGeometry x="300" y="580" width="150" height="160" as="geometry"/>
                </mxCell>
                <mxCell id="20" value="&lt;span style=&quot;font-size: 18px;&quot;&gt;Image&lt;/span&gt;" style="rounded=1;whiteSpace=wrap;html=1;fillColor=#2C89E6;" vertex="1" parent="1">
                    <mxGeometry x="490" y="580" width="150" height="160" as="geometry"/>
                </mxCell>
                <mxCell id="21" value="&lt;span style=&quot;font-size: 18px;&quot;&gt;Image&lt;/span&gt;" style="rounded=1;whiteSpace=wrap;html=1;fillColor=#2C89E6;" vertex="1" parent="1">
                    <mxGeometry x="680" y="580" width="150" height="160" as="geometry"/>
                </mxCell>
                <mxCell id="22" value="&lt;span style=&quot;font-size: 18px;&quot;&gt;Image&lt;/span&gt;" style="rounded=1;whiteSpace=wrap;html=1;fillColor=#2C89E6;" vertex="1" parent="1">
                    <mxGeometry x="110" y="820" width="150" height="160" as="geometry"/>
                </mxCell>
                <mxCell id="23" value="&lt;span style=&quot;font-size: 18px;&quot;&gt;Image&lt;/span&gt;" style="rounded=1;whiteSpace=wrap;html=1;fillColor=#2C89E6;" vertex="1" parent="1">
                    <mxGeometry x="300" y="820" width="150" height="160" as="geometry"/>
                </mxCell>
                <mxCell id="24" value="&lt;span style=&quot;font-size: 18px;&quot;&gt;Image&lt;/span&gt;" style="rounded=1;whiteSpace=wrap;html=1;fillColor=#2C89E6;" vertex="1" parent="1">
                    <mxGeometry x="480" y="820" width="150" height="160" as="geometry"/>
                </mxCell>
                <mxCell id="25" value="&lt;span style=&quot;font-size: 18px;&quot;&gt;Image&lt;/span&gt;" style="rounded=1;whiteSpace=wrap;html=1;fillColor=#2C89E6;" vertex="1" parent="1">
                    <mxGeometry x="680" y="820" width="150" height="160" as="geometry"/>
                </mxCell>
                <mxCell id="31" value="&lt;b&gt;What the colors mean?&lt;/b&gt;" style="swimlane;fontStyle=0;childLayout=stackLayout;horizontal=1;startSize=30;horizontalStack=0;resizeParent=1;resizeParentMax=0;resizeLast=0;collapsible=1;marginBottom=0;whiteSpace=wrap;html=1;fillColor=#25585C;" vertex="1" parent="1">
                    <mxGeometry x="-210" y="20" width="140" height="390" as="geometry"/>
                </mxCell>
                <mxCell id="32" value="&lt;b&gt;Images&lt;/b&gt;" style="text;strokeColor=none;fillColor=#2C89E6;align=center;verticalAlign=middle;spacingLeft=4;spacingRight=4;overflow=hidden;points=[[0,0.5],[1,0.5]];portConstraint=eastwest;rotatable=0;whiteSpace=wrap;html=1;" vertex="1" parent="31">
                    <mxGeometry y="30" width="140" height="30" as="geometry"/>
                </mxCell>
                <mxCell id="33" value="&lt;b&gt;Small Product Desc&lt;/b&gt;" style="text;strokeColor=none;fillColor=#C47878;align=center;verticalAlign=middle;spacingLeft=4;spacingRight=4;overflow=hidden;points=[[0,0.5],[1,0.5]];portConstraint=eastwest;rotatable=0;whiteSpace=wrap;html=1;" vertex="1" parent="31">
                    <mxGeometry y="60" width="140" height="30" as="geometry"/>
                </mxCell>
                <mxCell id="34" value="Search Bar" style="text;strokeColor=none;fillColor=#5BC441;align=center;verticalAlign=middle;spacingLeft=4;spacingRight=4;overflow=hidden;points=[[0,0.5],[1,0.5]];portConstraint=eastwest;rotatable=0;whiteSpace=wrap;html=1;" vertex="1" parent="31">
                    <mxGeometry y="90" width="140" height="30" as="geometry"/>
                </mxCell>
                <mxCell id="53" value="Site Icon Area" style="text;strokeColor=none;fillColor=#85CED6;align=center;verticalAlign=middle;spacingLeft=4;spacingRight=4;overflow=hidden;points=[[0,0.5],[1,0.5]];portConstraint=eastwest;rotatable=0;whiteSpace=wrap;html=1;" vertex="1" parent="31">
                    <mxGeometry y="120" width="140" height="30" as="geometry"/>
                </mxCell>
                <mxCell id="62" value="Filtering Section" style="text;strokeColor=none;fillColor=#59281E;align=center;verticalAlign=middle;spacingLeft=4;spacingRight=4;overflow=hidden;points=[[0,0.5],[1,0.5]];portConstraint=eastwest;rotatable=0;whiteSpace=wrap;html=1;" vertex="1" parent="31">
                    <mxGeometry y="150" width="140" height="30" as="geometry"/>
                </mxCell>
                <mxCell id="70" value="Sign Up" style="text;strokeColor=none;fillColor=#534AC4;align=center;verticalAlign=middle;spacingLeft=4;spacingRight=4;overflow=hidden;points=[[0,0.5],[1,0.5]];portConstraint=eastwest;rotatable=0;whiteSpace=wrap;html=1;" vertex="1" parent="31">
                    <mxGeometry y="180" width="140" height="30" as="geometry"/>
                </mxCell>
                <mxCell id="72" value="Sign In" style="text;strokeColor=none;fillColor=#433C9E;align=center;verticalAlign=middle;spacingLeft=4;spacingRight=4;overflow=hidden;points=[[0,0.5],[1,0.5]];portConstraint=eastwest;rotatable=0;whiteSpace=wrap;html=1;" vertex="1" parent="31">
                    <mxGeometry y="210" width="140" height="30" as="geometry"/>
                </mxCell>
                <mxCell id="73" value="Customer's Username" style="text;strokeColor=none;fillColor=#6C61FF;align=center;verticalAlign=middle;spacingLeft=4;spacingRight=4;overflow=hidden;points=[[0,0.5],[1,0.5]];portConstraint=eastwest;rotatable=0;whiteSpace=wrap;html=1;" vertex="1" parent="31">
                    <mxGeometry y="240" width="140" height="30" as="geometry"/>
                </mxCell>
                <mxCell id="78" value="Search Icon" style="text;strokeColor=none;fillColor=#FF614F;align=center;verticalAlign=middle;spacingLeft=4;spacingRight=4;overflow=hidden;points=[[0,0.5],[1,0.5]];portConstraint=eastwest;rotatable=0;whiteSpace=wrap;html=1;" vertex="1" parent="31">
                    <mxGeometry y="270" width="140" height="30" as="geometry"/>
                </mxCell>
                <mxCell id="84" value="Shopping Cart Icon" style="text;strokeColor=none;fillColor=#1B5C1F;align=center;verticalAlign=middle;spacingLeft=4;spacingRight=4;overflow=hidden;points=[[0,0.5],[1,0.5]];portConstraint=eastwest;rotatable=0;whiteSpace=wrap;html=1;" vertex="1" parent="31">
                    <mxGeometry y="300" width="140" height="30" as="geometry"/>
                </mxCell>
                <mxCell id="88" value="Cart Items Total (Num)" style="text;strokeColor=none;fillColor=#103612;align=center;verticalAlign=middle;spacingLeft=4;spacingRight=4;overflow=hidden;points=[[0,0.5],[1,0.5]];portConstraint=eastwest;rotatable=0;whiteSpace=wrap;html=1;" vertex="1" parent="31">
                    <mxGeometry y="330" width="140" height="30" as="geometry"/>
                </mxCell>
                <mxCell id="105" value="Not sure what to tag these as..." style="text;strokeColor=none;fillColor=#523E57;align=center;verticalAlign=middle;spacingLeft=4;spacingRight=4;overflow=hidden;points=[[0,0.5],[1,0.5]];portConstraint=eastwest;rotatable=0;whiteSpace=wrap;html=1;" vertex="1" parent="31">
                    <mxGeometry y="360" width="140" height="30" as="geometry"/>
                </mxCell>
                <mxCell id="35" value="&lt;span style=&quot;font-size: 18px;&quot;&gt;Prod. Desc.&lt;/span&gt;" style="rounded=0;whiteSpace=wrap;html=1;fillColor=#C47878;" vertex="1" parent="1">
                    <mxGeometry x="130" y="260" width="110" height="40" as="geometry"/>
                </mxCell>
                <mxCell id="36" value="&lt;span style=&quot;font-size: 18px;&quot;&gt;Prod. Desc.&lt;/span&gt;" style="rounded=0;whiteSpace=wrap;html=1;fillColor=#C47878;" vertex="1" parent="1">
                    <mxGeometry x="320" y="260" width="110" height="40" as="geometry"/>
                </mxCell>
                <mxCell id="37" value="&lt;span style=&quot;font-size: 18px;&quot;&gt;Prod. Desc.&lt;/span&gt;" style="rounded=0;whiteSpace=wrap;html=1;fillColor=#C47878;" vertex="1" parent="1">
                    <mxGeometry x="510" y="260" width="110" height="40" as="geometry"/>
                </mxCell>
                <mxCell id="38" value="&lt;span style=&quot;font-size: 18px;&quot;&gt;Prod. Desc.&lt;/span&gt;" style="rounded=0;whiteSpace=wrap;html=1;fillColor=#C47878;" vertex="1" parent="1">
                    <mxGeometry x="700" y="260" width="110" height="40" as="geometry"/>
                </mxCell>
                <mxCell id="39" value="&lt;span style=&quot;font-size: 18px;&quot;&gt;Prod. Desc.&lt;/span&gt;" style="rounded=0;whiteSpace=wrap;html=1;fillColor=#C47878;" vertex="1" parent="1">
                    <mxGeometry x="700" y="500" width="110" height="40" as="geometry"/>
                </mxCell>
                <mxCell id="40" value="&lt;span style=&quot;font-size: 18px;&quot;&gt;Prod. Desc.&lt;/span&gt;" style="rounded=0;whiteSpace=wrap;html=1;fillColor=#C47878;" vertex="1" parent="1">
                    <mxGeometry x="510" y="500" width="110" height="40" as="geometry"/>
                </mxCell>
                <mxCell id="41" value="&lt;span style=&quot;font-size: 18px;&quot;&gt;Prod. Desc.&lt;/span&gt;" style="rounded=0;whiteSpace=wrap;html=1;fillColor=#C47878;" vertex="1" parent="1">
                    <mxGeometry x="320" y="500" width="110" height="40" as="geometry"/>
                </mxCell>
                <mxCell id="42" value="&lt;span style=&quot;font-size: 18px;&quot;&gt;Prod. Desc.&lt;/span&gt;" style="rounded=0;whiteSpace=wrap;html=1;fillColor=#C47878;" vertex="1" parent="1">
                    <mxGeometry x="130" y="500" width="110" height="40" as="geometry"/>
                </mxCell>
                <mxCell id="43" value="&lt;span style=&quot;font-size: 18px;&quot;&gt;Prod. Desc.&lt;/span&gt;" style="rounded=0;whiteSpace=wrap;html=1;fillColor=#C47878;" vertex="1" parent="1">
                    <mxGeometry x="130" y="740" width="110" height="40" as="geometry"/>
                </mxCell>
                <mxCell id="44" value="&lt;span style=&quot;font-size: 18px;&quot;&gt;Prod. Desc.&lt;/span&gt;" style="rounded=0;whiteSpace=wrap;html=1;fillColor=#C47878;" vertex="1" parent="1">
                    <mxGeometry x="320" y="740" width="110" height="40" as="geometry"/>
                </mxCell>
                <mxCell id="45" value="&lt;span style=&quot;font-size: 18px;&quot;&gt;Prod. Desc.&lt;/span&gt;" style="rounded=0;whiteSpace=wrap;html=1;fillColor=#C47878;" vertex="1" parent="1">
                    <mxGeometry x="510" y="740" width="110" height="40" as="geometry"/>
                </mxCell>
                <mxCell id="46" value="&lt;span style=&quot;font-size: 18px;&quot;&gt;Prod. Desc.&lt;/span&gt;" style="rounded=0;whiteSpace=wrap;html=1;fillColor=#C47878;" vertex="1" parent="1">
                    <mxGeometry x="700" y="740" width="110" height="40" as="geometry"/>
                </mxCell>
                <mxCell id="47" value="&lt;span style=&quot;font-size: 18px;&quot;&gt;Prod. Desc.&lt;/span&gt;" style="rounded=0;whiteSpace=wrap;html=1;fillColor=#C47878;" vertex="1" parent="1">
                    <mxGeometry x="700" y="980" width="110" height="40" as="geometry"/>
                </mxCell>
                <mxCell id="48" value="&lt;span style=&quot;font-size: 18px;&quot;&gt;Prod. Desc.&lt;/span&gt;" style="rounded=0;whiteSpace=wrap;html=1;fillColor=#C47878;" vertex="1" parent="1">
                    <mxGeometry x="500" y="980" width="110" height="40" as="geometry"/>
                </mxCell>
                <mxCell id="49" value="&lt;span style=&quot;font-size: 18px;&quot;&gt;Prod. Desc.&lt;/span&gt;" style="rounded=0;whiteSpace=wrap;html=1;fillColor=#C47878;" vertex="1" parent="1">
                    <mxGeometry x="320" y="980" width="110" height="40" as="geometry"/>
                </mxCell>
                <mxCell id="50" value="&lt;font style=&quot;font-size: 18px;&quot;&gt;Prod. Desc.&lt;/font&gt;" style="rounded=0;whiteSpace=wrap;html=1;fillColor=#C47878;" vertex="1" parent="1">
                    <mxGeometry x="130" y="980" width="110" height="40" as="geometry"/>
                </mxCell>
                <mxCell id="52" value="&lt;font style=&quot;font-size: 18px;&quot;&gt;Search Bar&lt;/font&gt;" style="rounded=1;whiteSpace=wrap;html=1;fillColor=#5BC441;" vertex="1" parent="1">
                    <mxGeometry x="190" y="17.5" width="420" height="35" as="geometry"/>
                </mxCell>
                <mxCell id="54" value="&lt;font style=&quot;font-size: 18px;&quot;&gt;Site Icon&lt;/font&gt;" style="ellipse;whiteSpace=wrap;html=1;fillColor=#85CED6;" vertex="1" parent="1">
                    <mxGeometry x="30" y="5" width="90" height="60" as="geometry"/>
                </mxCell>
                <mxCell id="63" value="" style="rounded=0;whiteSpace=wrap;html=1;fillColor=#59281E;" vertex="1" parent="1">
                    <mxGeometry x="10" y="80" width="70" height="460" as="geometry"/>
                </mxCell>
                <mxCell id="67" value="" style="rounded=0;whiteSpace=wrap;html=1;fillColor=#18141D;" vertex="1" parent="1">
                    <mxGeometry y="1050" width="850" height="50" as="geometry"/>
                </mxCell>
                <mxCell id="71" value="" style="rounded=1;whiteSpace=wrap;html=1;fillColor=#433C9E;" vertex="1" parent="1">
                    <mxGeometry x="750" y="27.5" width="45" height="20" as="geometry"/>
                </mxCell>
                <mxCell id="75" value="&lt;font style=&quot;font-size: 9px;&quot;&gt;Username&lt;br&gt;&lt;br&gt;&lt;/font&gt;&lt;br&gt;" style="rounded=1;whiteSpace=wrap;html=1;fillColor=#6C61FF;" vertex="1" parent="1">
                    <mxGeometry x="750" y="10" width="95" height="52.5" as="geometry"/>
                </mxCell>
                <mxCell id="74" value="Sign In" style="rounded=1;whiteSpace=wrap;html=1;fillColor=#433C9E;" vertex="1" parent="1">
                    <mxGeometry x="750" y="27.5" width="45" height="20" as="geometry"/>
                </mxCell>
                <mxCell id="69" value="&lt;font style=&quot;font-size: 11px;&quot;&gt;Sign Out&lt;/font&gt;" style="rounded=1;whiteSpace=wrap;html=1;fillColor=#534AC4;" vertex="1" parent="1">
                    <mxGeometry x="800" y="27.5" width="45" height="20" as="geometry"/>
                </mxCell>
                <mxCell id="77" style="edgeStyle=none;html=1;entryX=0;entryY=0.5;entryDx=0;entryDy=0;fillColor=#59281E;" edge="1" parent="1" source="76" target="73">
                    <mxGeometry relative="1" as="geometry"/>
                </mxCell>
                <mxCell id="76" value="It won't be as huge. It's just to show where it's located." style="rounded=1;whiteSpace=wrap;html=1;fillColor=#6C61FF;" vertex="1" parent="1">
                    <mxGeometry x="-370" y="245" width="120" height="60" as="geometry"/>
                </mxCell>
                <mxCell id="79" value="" style="ellipse;whiteSpace=wrap;html=1;aspect=fixed;fillColor=#FF614F;" vertex="1" parent="1">
                    <mxGeometry x="620" y="25" width="20" height="20" as="geometry"/>
                </mxCell>
                <mxCell id="83" value="Cart" style="ellipse;whiteSpace=wrap;html=1;aspect=fixed;fillColor=#1B5C1F;" vertex="1" parent="1">
                    <mxGeometry x="700" y="16.25" width="40" height="40" as="geometry"/>
                </mxCell>
                <mxCell id="87" value="" style="ellipse;whiteSpace=wrap;html=1;aspect=fixed;fontSize=18;fillColor=#103612;" vertex="1" parent="1">
                    <mxGeometry x="725" y="10" width="20" height="20" as="geometry"/>
                </mxCell>
                <mxCell id="93" value="Filter" style="swimlane;fontStyle=0;childLayout=stackLayout;horizontal=1;startSize=30;horizontalStack=0;resizeParent=1;resizeParentMax=0;resizeLast=0;collapsible=1;marginBottom=0;whiteSpace=wrap;html=1;fontSize=8;fillColor=none;" vertex="1" parent="1">
                    <mxGeometry x="17.5" y="90" width="55" height="180" as="geometry"/>
                </mxCell>
                <mxCell id="94" value="By Categories" style="text;strokeColor=none;fillColor=none;align=left;verticalAlign=middle;spacingLeft=4;spacingRight=4;overflow=hidden;points=[[0,0.5],[1,0.5]];portConstraint=eastwest;rotatable=0;whiteSpace=wrap;html=1;fontSize=8;" vertex="1" parent="93">
                    <mxGeometry y="30" width="55" height="30" as="geometry"/>
                </mxCell>
                <mxCell id="95" value="By Material&amp;nbsp;" style="text;strokeColor=none;fillColor=none;align=left;verticalAlign=middle;spacingLeft=4;spacingRight=4;overflow=hidden;points=[[0,0.5],[1,0.5]];portConstraint=eastwest;rotatable=0;whiteSpace=wrap;html=1;fontSize=8;" vertex="1" parent="93">
                    <mxGeometry y="60" width="55" height="30" as="geometry"/>
                </mxCell>
                <mxCell id="96" value="Price Filer&lt;br&gt;Min and Max" style="text;strokeColor=none;fillColor=none;align=left;verticalAlign=middle;spacingLeft=4;spacingRight=4;overflow=hidden;points=[[0,0.5],[1,0.5]];portConstraint=eastwest;rotatable=0;whiteSpace=wrap;html=1;fontSize=8;" vertex="1" parent="93">
                    <mxGeometry y="90" width="55" height="30" as="geometry"/>
                </mxCell>
                <mxCell id="97" value="Qaunity Amount" style="text;strokeColor=none;fillColor=none;align=left;verticalAlign=middle;spacingLeft=4;spacingRight=4;overflow=hidden;points=[[0,0.5],[1,0.5]];portConstraint=eastwest;rotatable=0;whiteSpace=wrap;html=1;fontSize=8;" vertex="1" parent="93">
                    <mxGeometry y="120" width="55" height="30" as="geometry"/>
                </mxCell>
                <mxCell id="98" value="Reviews" style="text;strokeColor=none;fillColor=none;align=left;verticalAlign=middle;spacingLeft=4;spacingRight=4;overflow=hidden;points=[[0,0.5],[1,0.5]];portConstraint=eastwest;rotatable=0;whiteSpace=wrap;html=1;fontSize=8;" vertex="1" parent="93">
                    <mxGeometry y="150" width="55" height="30" as="geometry"/>
                </mxCell>
                <mxCell id="102" value="Contact" style="rounded=0;whiteSpace=wrap;html=1;fontSize=8;fillColor=#523E57;" vertex="1" parent="1">
                    <mxGeometry x="470" y="1050" width="60" height="20" as="geometry"/>
                </mxCell>
                <mxCell id="109" style="edgeStyle=none;html=1;entryX=0.208;entryY=0.963;entryDx=0;entryDy=0;entryPerimeter=0;fontSize=8;fillColor=#59281E;" edge="1" parent="1" source="103" target="102">
                    <mxGeometry relative="1" as="geometry"/>
                </mxCell>
                <mxCell id="103" value="Trade Mark" style="rounded=0;whiteSpace=wrap;html=1;fontSize=8;fillColor=#523E57;" vertex="1" parent="1">
                    <mxGeometry x="440" y="1080" width="60" height="20" as="geometry"/>
                </mxCell>
                <mxCell id="107" style="edgeStyle=none;html=1;fontSize=8;fillColor=#59281E;" edge="1" parent="1" source="104" target="103">
                    <mxGeometry relative="1" as="geometry"/>
                </mxCell>
                <mxCell id="104" value="Customer Service" style="rounded=0;whiteSpace=wrap;html=1;fontSize=8;fillColor=#523E57;" vertex="1" parent="1">
                    <mxGeometry x="410" y="1050" width="60" height="20" as="geometry"/>
                </mxCell>
                <mxCell id="106" style="edgeStyle=none;html=1;entryX=0;entryY=0.75;entryDx=0;entryDy=0;fontSize=8;fillColor=#59281E;" edge="1" parent="1" source="105" target="104">
                    <mxGeometry relative="1" as="geometry">
                        <Array as="points">
                            <mxPoint x="-140" y="1065"/>
                        </Array>
                    </mxGeometry>
                </mxCell>
            </root>
        </mxGraphModel>
    </diagram>
</mxfile>